<svg xmlns="http://www.w3.org/2000/svg" viewBox="0 0 64 64" role="img" aria-labelledby="title desc">
  <title id="title">HasuMane</title>
  <desc id="desc">A refined forest green HasuMane monogram with a fresh leaf accent.</desc>
  <defs>
    <linearGradient id="bg" x1="11" y1="7" x2="55" y2="58" gradientUnits="userSpaceOnUse">
      <stop offset="0" stop-color="#0b6a51"/>
      <stop offset=".58" stop-color="#07503f"/>
      <stop offset="1" stop-color="#04362d"/>
    </linearGradient>
    <linearGradient id="leaf" x1="29" y1="13" x2="48" y2="31" gradientUnits="userSpaceOnUse">
      <stop offset="0" stop-color="#f3ff9a"/>
      <stop offset="1" stop-color="#bde86c"/>
    </linearGradient>
    <filter id="softShadow" x="-18%" y="-18%" width="136%" height="136%" color-interpolation-filters="sRGB">
      <feDropShadow dx="0" dy="3" stdDeviation="2.4" flood-color="#01251f" flood-opacity=".26"/>
    </filter>
  </defs>
  <rect width="64" height="64" rx="18" fill="#07503f"/>
  <rect x="3" y="3" width="58" height="58" rx="16" fill="url(#bg)"/>
  <path d="M10 49.7c9.8 6.7 34.1 7.3 44.4-2.6-1.7 7.4-8 11.4-21.5 11.4-13.7 0-21.1-3.3-22.9-8.8Z" fill="#022f28" opacity=".2"/>
  <g filter="url(#softShadow)">
    <path d="M31.6 21.8c4.3-7.8 12.1-10.7 19.3-6.3-3.6 1.3-6 3.6-7.3 6.9-1.8 4.6-6.5 6.9-11.3 5.4-1.8-.6-2.6-2.7-.7-6Z" fill="url(#leaf)"/>
    <path d="M35.1 24.4c3.7-1.4 7.2-3.6 10.6-6.7" fill="none" stroke="#07503f" stroke-width="2.1" stroke-linecap="round" opacity=".38"/>
    <path d="M20.5 43.8V25.4" fill="none" stroke="#fff7e5" stroke-width="6.4" stroke-linecap="round"/>
    <path d="M43.5 43.8V25.4" fill="none" stroke="#fff7e5" stroke-width="6.4" stroke-linecap="round"/>
    <path d="M22.3 35.1c5.2-3.2 14.2-3.2 19.4 0" fill="none" stroke="#fff7e5" stroke-width="6.4" stroke-linecap="round"/>
  </g>
  <path d="M20.5 23.8c3.3-4 7.2-6 11.5-6 2.9 0 5.6.8 8.1 2.5" fill="none" stroke="#fff7e5" stroke-width="2.5" stroke-linecap="round" opacity=".8"/>
  <rect x="3.75" y="3.75" width="56.5" height="56.5" rx="15.25" fill="none" stroke="#ffffff" stroke-opacity=".16" stroke-width="1.5"/>
</svg>
